<?xml version="1.0" encoding="utf-8"?>
<!-- Generator: Adobe Illustrator 24.1.3, SVG Export Plug-In . SVG Version: 6.00 Build 0)  -->
<svg version="1.1" id="Layer_1" xmlns="http://www.w3.org/2000/svg" xmlns:xlink="http://www.w3.org/1999/xlink" x="0px" y="0px"
	 viewBox="0 0 700 169" style="enable-background:new 0 0 700 169;" xml:space="preserve">
<style type="text/css">
	.st0{fill-rule:evenodd;clip-rule:evenodd;}
</style>
<path class="st0" d="M556.9,60.5h6.6v-9.4l16.1-9.3v18.7h13.7v4.8h-13.7V130h-16.1c0-21.6,0-43.1,0-64.7h-6.6V60.5L556.9,60.5z
	 M553.1,48.7c0,5.1-4.2,9.3-9.3,9.3c-5.1,0-9.3-4.2-9.3-9.3c0-5.1,4.2-9.3,9.3-9.3C548.9,39.4,553.1,43.6,553.1,48.7L553.1,48.7z
	 M535.7,65.8c0,21.4,0,42.8,0,64.2h16.1V65.8H535.7L535.7,65.8z M627.1,65.4v4.1c-3.8-2.6-8.3-4.2-13.4-4.3
	c-16.2,0.4-26.3,15.2-26.3,32.4c0,17.2,10.1,32,26.3,32.4c5.1-0.1,9.6-1.7,13.4-4.3v4.3h13V65.4H627.1L627.1,65.4z M461.5,65.4v4.1
	c-3.8-2.6-8.3-4.2-13.4-4.3c-16.2,0.4-26.3,15.2-26.3,32.4c0,17.2,10.1,32,26.3,32.4c5.1-0.1,9.6-1.7,13.4-4.3v4.3h13V65.4H461.5
	L461.5,65.4z M479.6,65.3c5.6,0,11.2,0,16.8,0c0,2.1,0,4.2,0,6.4c8-10.6,22.6-7.2,29.1,2.9c7.9,12.3,4.3,31.8,4.3,31.8
	c-1.8,11.4-11.6,25.6-24.7,23.2c-5.2-0.9-7.4-4.7-7.4-4.7v29.6c-6,0-12,0-18,0C479.6,152,479.6,68.5,479.6,65.3L479.6,65.3z
	 M645.2,51.1c0,26.3,0,52.6,0,78.8h16.1V41.8L645.2,51.1L645.2,51.1z M416.5,101.7V130h-28.1c0,0-32.5-4.2-32.5-45.6
	c0-41.4,36.5-42.5,36.5-42.5h24.3v28.2H413c0,0-5.3-24.9-20.3-24.9c-14.9,0-15.3,29.3-15.3,29.3v23.1c0,0-0.8,28.7,15.7,28.7
	c16.5,0,19.5-24.9,19.5-24.9h3.8L416.5,101.7L416.5,101.7z M176.7,115.4c2.7,8.7,11.6,8.7,14.2,0c1.8-5.9,1.8-29.8,0-35.7
	c-2.7-8.7-11.6-8.7-14.2,0C174.9,85.6,174.9,109.6,176.7,115.4L176.7,115.4z M97.7,115.4c2.7,8.7,11.6,8.7,14.2,0
	c1.8-5.9,1.8-29.8,0-35.7c-2.7-8.7-11.6-8.7-14.2,0C95.9,85.6,95.9,109.6,97.7,115.4L97.7,115.4z M297.4,60.5h6.6v-9.4l16.1-9.3
	v18.7h13.7v4.8h-13.7V130H304c0-21.6,0-43.1,0-64.7h-6.6V60.5L297.4,60.5z M242.2,65.2L242.2,65.2c6,0,11.4,2.9,14.9,7.3
	c3.5-4.4,8.8-7.3,14.9-7.3l0,0c10.4,0,18.9,8.5,18.9,18.9V130h-16.1V77.9c0-9-13.6-9-13.6,0V130H245V77.9c0-7.8-11.8-10.2-13.6-0.1
	V130h-16.1l0-64.7l16.1,0v3.4C234.4,66.5,238.2,65.2,242.2,65.2L242.2,65.2z M136.2,51.1c0,26.3,0,52.6,0,78.8h16.1V41.8L136.2,51.1
	L136.2,51.1z M72.4,70.7V41.9H47.9c0,0-35.9-2.5-35.9,44c0,28.2,11.3,38.4,20.2,42c7.3,3,18.9,2.6,26.1,0c7.6-2.7,15-8.8,15-22.3
	v-22H45.9v3.9h3.4c0,0,6.6,0.8,6.6,7.8v19.2c0,0,0.5,13.2-10.4,13.2C34.5,127.6,34,110,34,110s-1.8-46.1,4.3-57
	c6.1-10.9,15.6-6.5,15.6-6.5s10.7,2.7,14.9,24.1L72.4,70.7L72.4,70.7z M673.2,39.2c-5.6,0-10.1-4.6-10.1-10.2
	c0-5.6,4.6-10.1,10.1-10.1c5.6,0,10.2,4.6,10.2,10.1C683.3,34.6,678.8,39.2,673.2,39.2L673.2,39.2z M672.7,28h-1.5v-3.4l1.5,0
	c0,0,1.9-0.1,1.9,1.7C674.7,28.2,672.7,28,672.7,28L672.7,28z M675.6,29.2c2.9-1,2.4-3.7,2.4-3.7c-0.1-3.4-4.4-3.3-4.4-3.3h-5.8
	v13.1h3.4v-4.9h1c1.4,0,2,1.2,2,1.2l1.8,3.7h3.6c0,0-1.7-3.5-2.3-4.7C676.7,29.5,675.6,29.2,675.6,29.2L675.6,29.2z M673.2,16.2
	c-7.1,0-12.8,5.8-12.8,12.8c0,7.1,5.8,12.8,12.8,12.8c7.1,0,12.8-5.7,12.8-12.8C686,22,680.2,16.2,673.2,16.2L673.2,16.2z
	 M104.8,130c-16.2-0.4-26.3-15.2-26.3-32.4c0-17.2,10.1-32,26.3-32.4c16.2,0.4,26.3,15.2,26.3,32.4C131.1,114.8,121,129.6,104.8,130
	L104.8,130z M183.8,130c-16.2-0.4-26.3-15.2-26.3-32.4c0-17.2,10.1-32,26.3-32.4c16.2,0.4,26.3,15.2,26.3,32.4
	C210.1,114.8,200,129.6,183.8,130L183.8,130z M497.2,81.8c-1.2,9.3-1.2,22,0,31.3c1.5,11.6,13.7,11.6,15.2,0c1.2-9.3,1.2-22,0-31.3
	C510.9,70.3,498.7,70.3,497.2,81.8L497.2,81.8z M441,115.4c2.7,8.7,11.6,8.7,14.2,0c1.8-5.9,1.8-29.8,0-35.7
	c-2.7-8.7-11.6-8.7-14.2,0C439.2,85.6,439.2,109.6,441,115.4L441,115.4z M606.6,115.4c2.7,8.7,11.6,8.7,14.2,0
	c1.8-5.9,1.8-29.8,0-35.7c-2.7-8.7-11.6-8.7-14.2,0C604.8,85.6,604.8,109.6,606.6,115.4L606.6,115.4z"/>
</svg>
